<svg width="177" height="128" viewBox="0 0 177 128" fill="none" xmlns="http://www.w3.org/2000/svg">
<rect x="0.5" y="0.5" width="176" height="127" rx="4.5" stroke="#9747FF" stroke-dasharray="10 5"/>
<rect x="21" y="21" width="135" height="32" rx="1" fill="#70054C"/>
<rect x="21" y="21" width="135" height="32" rx="1" stroke="#370325" stroke-width="2"/>
<rect x="20.5" y="20.5" width="136" height="33" rx="0.5" stroke="#70054C"/>
<path d="M47.1854 42.144C46.3294 42.144 45.5974 41.996 44.9894 41.7C44.3814 41.396 43.9174 40.928 43.5974 40.296C43.2854 39.664 43.1294 38.86 43.1294 37.884C43.1294 36.444 43.4814 35.376 44.1854 34.68C44.8974 33.976 45.8974 33.624 47.1854 33.624C47.8894 33.624 48.5214 33.744 49.0814 33.984C49.6414 34.224 50.0814 34.584 50.4014 35.064C50.7294 35.544 50.8934 36.148 50.8934 36.876H49.0934C49.0934 36.492 49.0134 36.168 48.8534 35.904C48.7014 35.64 48.4814 35.44 48.1934 35.304C47.9134 35.16 47.5854 35.088 47.2094 35.088C46.6974 35.088 46.2734 35.188 45.9374 35.388C45.6094 35.588 45.3654 35.884 45.2054 36.276C45.0534 36.66 44.9774 37.132 44.9774 37.692V38.064C44.9774 38.64 45.0574 39.124 45.2174 39.516C45.3774 39.9 45.6174 40.192 45.9374 40.392C46.2654 40.584 46.6854 40.68 47.1974 40.68C47.5974 40.68 47.9454 40.612 48.2414 40.476C48.5374 40.34 48.7654 40.14 48.9254 39.876C49.0854 39.612 49.1654 39.288 49.1654 38.904H50.8934C50.8934 39.632 50.7334 40.236 50.4134 40.716C50.1014 41.196 49.6654 41.556 49.1054 41.796C48.5454 42.028 47.9054 42.144 47.1854 42.144ZM56.1422 42.144C55.2702 42.144 54.5182 41.988 53.8862 41.676C53.2542 41.364 52.7702 40.892 52.4342 40.26C52.0982 39.628 51.9302 38.836 51.9302 37.884C51.9302 36.916 52.0982 36.12 52.4342 35.496C52.7702 34.864 53.2542 34.396 53.8862 34.092C54.5182 33.78 55.2702 33.624 56.1422 33.624C57.0302 33.624 57.7862 33.78 58.4102 34.092C59.0422 34.396 59.5262 34.864 59.8622 35.496C60.1982 36.12 60.3662 36.916 60.3662 37.884C60.3662 38.836 60.1982 39.628 59.8622 40.26C59.5262 40.892 59.0422 41.364 58.4102 41.676C57.7862 41.988 57.0302 42.144 56.1422 42.144ZM56.1422 40.68C56.5342 40.68 56.8782 40.624 57.1742 40.512C57.4702 40.4 57.7182 40.232 57.9182 40.008C58.1182 39.784 58.2702 39.512 58.3742 39.192C58.4782 38.864 58.5302 38.492 58.5302 38.076V37.704C58.5302 37.28 58.4782 36.904 58.3742 36.576C58.2702 36.248 58.1182 35.976 57.9182 35.76C57.7182 35.536 57.4702 35.368 57.1742 35.256C56.8782 35.144 56.5342 35.088 56.1422 35.088C55.7582 35.088 55.4182 35.144 55.1222 35.256C54.8262 35.368 54.5782 35.536 54.3782 35.76C54.1782 35.976 54.0262 36.248 53.9222 36.576C53.8262 36.904 53.7782 37.28 53.7782 37.704V38.076C53.7782 38.492 53.8262 38.864 53.9222 39.192C54.0262 39.512 54.1782 39.784 54.3782 40.008C54.5782 40.232 54.8262 40.4 55.1222 40.512C55.4182 40.624 55.7582 40.68 56.1422 40.68ZM61.8178 42V33.768H63.4618L66.7738 38.208C66.8218 38.264 66.8818 38.344 66.9538 38.448C67.0258 38.544 67.0938 38.64 67.1578 38.736C67.2218 38.832 67.2658 38.908 67.2898 38.964H67.3498C67.3498 38.828 67.3498 38.696 67.3498 38.568C67.3498 38.432 67.3498 38.312 67.3498 38.208V33.768H69.0418V42H67.3978L64.0138 37.452C63.9338 37.34 63.8498 37.216 63.7618 37.08C63.6738 36.944 63.6098 36.84 63.5698 36.768H63.5098C63.5098 36.888 63.5098 37.008 63.5098 37.128C63.5098 37.24 63.5098 37.348 63.5098 37.452V42H61.8178ZM72.8927 42V35.268H70.2527V33.768H77.3447V35.268H74.6927V42H72.8927ZM76.7044 42L79.8724 33.768H82.0804L85.2484 42H83.3164L82.7284 40.38H79.1404L78.5524 42H76.7044ZM79.6564 38.94H82.2124L81.4804 36.912C81.4484 36.824 81.4084 36.72 81.3604 36.6C81.3204 36.472 81.2764 36.332 81.2284 36.18C81.1804 36.028 81.1324 35.88 81.0844 35.736C81.0444 35.584 81.0044 35.448 80.9644 35.328H80.8924C80.8524 35.48 80.8004 35.66 80.7364 35.868C80.6724 36.068 80.6084 36.264 80.5444 36.456C80.4804 36.64 80.4284 36.792 80.3884 36.912L79.6564 38.94ZM89.7244 42.144C88.8684 42.144 88.1364 41.996 87.5284 41.7C86.9204 41.396 86.4564 40.928 86.1364 40.296C85.8244 39.664 85.6684 38.86 85.6684 37.884C85.6684 36.444 86.0204 35.376 86.7244 34.68C87.4364 33.976 88.4364 33.624 89.7244 33.624C90.4284 33.624 91.0604 33.744 91.6204 33.984C92.1804 34.224 92.6204 34.584 92.9404 35.064C93.2684 35.544 93.4324 36.148 93.4324 36.876H91.6324C91.6324 36.492 91.5524 36.168 91.3924 35.904C91.2404 35.64 91.0204 35.44 90.7324 35.304C90.4524 35.16 90.1244 35.088 89.7484 35.088C89.2364 35.088 88.8124 35.188 88.4764 35.388C88.1484 35.588 87.9044 35.884 87.7444 36.276C87.5924 36.66 87.5164 37.132 87.5164 37.692V38.064C87.5164 38.64 87.5964 39.124 87.7564 39.516C87.9164 39.9 88.1564 40.192 88.4764 40.392C88.8044 40.584 89.2244 40.68 89.7364 40.68C90.1364 40.68 90.4844 40.612 90.7804 40.476C91.0764 40.34 91.3044 40.14 91.4644 39.876C91.6244 39.612 91.7044 39.288 91.7044 38.904H93.4324C93.4324 39.632 93.2724 40.236 92.9524 40.716C92.6404 41.196 92.2044 41.556 91.6444 41.796C91.0844 42.028 90.4444 42.144 89.7244 42.144ZM96.6349 42V35.268H93.9949V33.768H101.087V35.268H98.4349V42H96.6349ZM100.447 42L103.615 33.768H105.823L108.991 42H107.059L106.471 40.38H102.883L102.295 42H100.447ZM103.399 38.94H105.955L105.223 36.912C105.191 36.824 105.151 36.72 105.103 36.6C105.063 36.472 105.019 36.332 104.971 36.18C104.923 36.028 104.875 35.88 104.827 35.736C104.787 35.584 104.747 35.448 104.707 35.328H104.635C104.595 35.48 104.543 35.66 104.479 35.868C104.415 36.068 104.351 36.264 104.287 36.456C104.223 36.64 104.171 36.792 104.131 36.912L103.399 38.94ZM103.939 33.132L104.935 31.536H106.711L106.735 31.584L105.295 33.132H103.939ZM109.97 42V33.768H111.614L114.926 38.208C114.974 38.264 115.034 38.344 115.106 38.448C115.178 38.544 115.246 38.64 115.31 38.736C115.374 38.832 115.418 38.908 115.442 38.964H115.502C115.502 38.828 115.502 38.696 115.502 38.568C115.502 38.432 115.502 38.312 115.502 38.208V33.768H117.194V42H115.55L112.166 37.452C112.086 37.34 112.002 37.216 111.914 37.08C111.826 36.944 111.762 36.84 111.722 36.768H111.662C111.662 36.888 111.662 37.008 111.662 37.128C111.662 37.24 111.662 37.348 111.662 37.452V42H109.97ZM122.857 42.144C121.985 42.144 121.233 41.988 120.601 41.676C119.969 41.364 119.485 40.892 119.149 40.26C118.813 39.628 118.645 38.836 118.645 37.884C118.645 36.916 118.813 36.12 119.149 35.496C119.485 34.864 119.969 34.396 120.601 34.092C121.233 33.78 121.985 33.624 122.857 33.624C123.745 33.624 124.501 33.78 125.125 34.092C125.757 34.396 126.241 34.864 126.577 35.496C126.913 36.12 127.081 36.916 127.081 37.884C127.081 38.836 126.913 39.628 126.577 40.26C126.241 40.892 125.757 41.364 125.125 41.676C124.501 41.988 123.745 42.144 122.857 42.144ZM122.857 40.68C123.249 40.68 123.593 40.624 123.889 40.512C124.185 40.4 124.433 40.232 124.633 40.008C124.833 39.784 124.985 39.512 125.089 39.192C125.193 38.864 125.245 38.492 125.245 38.076V37.704C125.245 37.28 125.193 36.904 125.089 36.576C124.985 36.248 124.833 35.976 124.633 35.76C124.433 35.536 124.185 35.368 123.889 35.256C123.593 35.144 123.249 35.088 122.857 35.088C122.473 35.088 122.133 35.144 121.837 35.256C121.541 35.368 121.293 35.536 121.093 35.76C120.893 35.976 120.741 36.248 120.637 36.576C120.541 36.904 120.493 37.28 120.493 37.704V38.076C120.493 38.492 120.541 38.864 120.637 39.192C120.741 39.512 120.893 39.784 121.093 40.008C121.293 40.232 121.541 40.4 121.837 40.512C122.133 40.624 122.473 40.68 122.857 40.68ZM131.737 42.144C131.257 42.144 130.801 42.096 130.369 42C129.937 41.904 129.553 41.752 129.217 41.544C128.889 41.328 128.629 41.06 128.437 40.74C128.253 40.412 128.161 40.016 128.161 39.552C128.161 39.512 128.161 39.472 128.161 39.432C128.161 39.384 128.165 39.348 128.173 39.324H129.949C129.941 39.348 129.937 39.38 129.937 39.42C129.937 39.46 129.937 39.496 129.937 39.528C129.937 39.784 130.005 40 130.141 40.176C130.285 40.352 130.493 40.484 130.765 40.572C131.037 40.66 131.353 40.704 131.713 40.704C131.945 40.704 132.149 40.692 132.325 40.668C132.509 40.636 132.669 40.596 132.805 40.548C132.949 40.492 133.065 40.428 133.153 40.356C133.249 40.284 133.317 40.2 133.357 40.104C133.405 40.008 133.429 39.9 133.429 39.78C133.429 39.564 133.357 39.388 133.213 39.252C133.077 39.116 132.885 39 132.637 38.904C132.397 38.808 132.125 38.72 131.821 38.64C131.517 38.56 131.205 38.48 130.885 38.4C130.565 38.312 130.253 38.208 129.949 38.088C129.645 37.96 129.373 37.808 129.133 37.632C128.893 37.456 128.701 37.232 128.557 36.96C128.413 36.688 128.341 36.36 128.341 35.976C128.341 35.568 128.425 35.216 128.593 34.92C128.769 34.624 129.013 34.38 129.325 34.188C129.637 33.996 129.997 33.856 130.405 33.768C130.813 33.672 131.257 33.624 131.737 33.624C132.185 33.624 132.609 33.672 133.009 33.768C133.409 33.856 133.761 34 134.065 34.2C134.369 34.4 134.605 34.652 134.773 34.956C134.949 35.26 135.037 35.62 135.037 36.036V36.18H133.297V36.084C133.297 35.868 133.233 35.684 133.105 35.532C132.977 35.38 132.797 35.26 132.565 35.172C132.333 35.084 132.061 35.04 131.749 35.04C131.413 35.04 131.125 35.072 130.885 35.136C130.653 35.2 130.473 35.296 130.345 35.424C130.225 35.544 130.165 35.688 130.165 35.856C130.165 36.048 130.233 36.208 130.369 36.336C130.513 36.456 130.705 36.564 130.945 36.66C131.193 36.748 131.469 36.828 131.773 36.9C132.077 36.972 132.389 37.052 132.709 37.14C133.029 37.228 133.341 37.332 133.645 37.452C133.949 37.572 134.221 37.724 134.461 37.908C134.701 38.084 134.893 38.304 135.037 38.568C135.181 38.832 135.253 39.148 135.253 39.516C135.253 40.148 135.101 40.656 134.797 41.04C134.493 41.424 134.077 41.704 133.549 41.88C133.021 42.056 132.417 42.144 131.737 42.144Z" fill="#EFECE7"/>
<rect x="21" y="75" width="135" height="32" rx="1" stroke="#370325" stroke-width="2"/>
<rect x="20.5" y="74.5" width="136" height="33" rx="0.5" stroke="#70054C"/>
<path d="M47.1854 96.144C46.3294 96.144 45.5974 95.996 44.9894 95.7C44.3814 95.396 43.9174 94.928 43.5974 94.296C43.2854 93.664 43.1294 92.86 43.1294 91.884C43.1294 90.444 43.4814 89.376 44.1854 88.68C44.8974 87.976 45.8974 87.624 47.1854 87.624C47.8894 87.624 48.5214 87.744 49.0814 87.984C49.6414 88.224 50.0814 88.584 50.4014 89.064C50.7294 89.544 50.8934 90.148 50.8934 90.876H49.0934C49.0934 90.492 49.0134 90.168 48.8534 89.904C48.7014 89.64 48.4814 89.44 48.1934 89.304C47.9134 89.16 47.5854 89.088 47.2094 89.088C46.6974 89.088 46.2734 89.188 45.9374 89.388C45.6094 89.588 45.3654 89.884 45.2054 90.276C45.0534 90.66 44.9774 91.132 44.9774 91.692V92.064C44.9774 92.64 45.0574 93.124 45.2174 93.516C45.3774 93.9 45.6174 94.192 45.9374 94.392C46.2654 94.584 46.6854 94.68 47.1974 94.68C47.5974 94.68 47.9454 94.612 48.2414 94.476C48.5374 94.34 48.7654 94.14 48.9254 93.876C49.0854 93.612 49.1654 93.288 49.1654 92.904H50.8934C50.8934 93.632 50.7334 94.236 50.4134 94.716C50.1014 95.196 49.6654 95.556 49.1054 95.796C48.5454 96.028 47.9054 96.144 47.1854 96.144ZM56.1422 96.144C55.2702 96.144 54.5182 95.988 53.8862 95.676C53.2542 95.364 52.7702 94.892 52.4342 94.26C52.0982 93.628 51.9302 92.836 51.9302 91.884C51.9302 90.916 52.0982 90.12 52.4342 89.496C52.7702 88.864 53.2542 88.396 53.8862 88.092C54.5182 87.78 55.2702 87.624 56.1422 87.624C57.0302 87.624 57.7862 87.78 58.4102 88.092C59.0422 88.396 59.5262 88.864 59.8622 89.496C60.1982 90.12 60.3662 90.916 60.3662 91.884C60.3662 92.836 60.1982 93.628 59.8622 94.26C59.5262 94.892 59.0422 95.364 58.4102 95.676C57.7862 95.988 57.0302 96.144 56.1422 96.144ZM56.1422 94.68C56.5342 94.68 56.8782 94.624 57.1742 94.512C57.4702 94.4 57.7182 94.232 57.9182 94.008C58.1182 93.784 58.2702 93.512 58.3742 93.192C58.4782 92.864 58.5302 92.492 58.5302 92.076V91.704C58.5302 91.28 58.4782 90.904 58.3742 90.576C58.2702 90.248 58.1182 89.976 57.9182 89.76C57.7182 89.536 57.4702 89.368 57.1742 89.256C56.8782 89.144 56.5342 89.088 56.1422 89.088C55.7582 89.088 55.4182 89.144 55.1222 89.256C54.8262 89.368 54.5782 89.536 54.3782 89.76C54.1782 89.976 54.0262 90.248 53.9222 90.576C53.8262 90.904 53.7782 91.28 53.7782 91.704V92.076C53.7782 92.492 53.8262 92.864 53.9222 93.192C54.0262 93.512 54.1782 93.784 54.3782 94.008C54.5782 94.232 54.8262 94.4 55.1222 94.512C55.4182 94.624 55.7582 94.68 56.1422 94.68ZM61.8178 96V87.768H63.4618L66.7738 92.208C66.8218 92.264 66.8818 92.344 66.9538 92.448C67.0258 92.544 67.0938 92.64 67.1578 92.736C67.2218 92.832 67.2658 92.908 67.2898 92.964H67.3498C67.3498 92.828 67.3498 92.696 67.3498 92.568C67.3498 92.432 67.3498 92.312 67.3498 92.208V87.768H69.0418V96H67.3978L64.0138 91.452C63.9338 91.34 63.8498 91.216 63.7618 91.08C63.6738 90.944 63.6098 90.84 63.5698 90.768H63.5098C63.5098 90.888 63.5098 91.008 63.5098 91.128C63.5098 91.24 63.5098 91.348 63.5098 91.452V96H61.8178ZM72.8927 96V89.268H70.2527V87.768H77.3447V89.268H74.6927V96H72.8927ZM76.7044 96L79.8724 87.768H82.0804L85.2484 96H83.3164L82.7284 94.38H79.1404L78.5524 96H76.7044ZM79.6564 92.94H82.2124L81.4804 90.912C81.4484 90.824 81.4084 90.72 81.3604 90.6C81.3204 90.472 81.2764 90.332 81.2284 90.18C81.1804 90.028 81.1324 89.88 81.0844 89.736C81.0444 89.584 81.0044 89.448 80.9644 89.328H80.8924C80.8524 89.48 80.8004 89.66 80.7364 89.868C80.6724 90.068 80.6084 90.264 80.5444 90.456C80.4804 90.64 80.4284 90.792 80.3884 90.912L79.6564 92.94ZM89.7244 96.144C88.8684 96.144 88.1364 95.996 87.5284 95.7C86.9204 95.396 86.4564 94.928 86.1364 94.296C85.8244 93.664 85.6684 92.86 85.6684 91.884C85.6684 90.444 86.0204 89.376 86.7244 88.68C87.4364 87.976 88.4364 87.624 89.7244 87.624C90.4284 87.624 91.0604 87.744 91.6204 87.984C92.1804 88.224 92.6204 88.584 92.9404 89.064C93.2684 89.544 93.4324 90.148 93.4324 90.876H91.6324C91.6324 90.492 91.5524 90.168 91.3924 89.904C91.2404 89.64 91.0204 89.44 90.7324 89.304C90.4524 89.16 90.1244 89.088 89.7484 89.088C89.2364 89.088 88.8124 89.188 88.4764 89.388C88.1484 89.588 87.9044 89.884 87.7444 90.276C87.5924 90.66 87.5164 91.132 87.5164 91.692V92.064C87.5164 92.64 87.5964 93.124 87.7564 93.516C87.9164 93.9 88.1564 94.192 88.4764 94.392C88.8044 94.584 89.2244 94.68 89.7364 94.68C90.1364 94.68 90.4844 94.612 90.7804 94.476C91.0764 94.34 91.3044 94.14 91.4644 93.876C91.6244 93.612 91.7044 93.288 91.7044 92.904H93.4324C93.4324 93.632 93.2724 94.236 92.9524 94.716C92.6404 95.196 92.2044 95.556 91.6444 95.796C91.0844 96.028 90.4444 96.144 89.7244 96.144ZM96.6349 96V89.268H93.9949V87.768H101.087V89.268H98.4349V96H96.6349ZM100.447 96L103.615 87.768H105.823L108.991 96H107.059L106.471 94.38H102.883L102.295 96H100.447ZM103.399 92.94H105.955L105.223 90.912C105.191 90.824 105.151 90.72 105.103 90.6C105.063 90.472 105.019 90.332 104.971 90.18C104.923 90.028 104.875 89.88 104.827 89.736C104.787 89.584 104.747 89.448 104.707 89.328H104.635C104.595 89.48 104.543 89.66 104.479 89.868C104.415 90.068 104.351 90.264 104.287 90.456C104.223 90.64 104.171 90.792 104.131 90.912L103.399 92.94ZM103.939 87.132L104.935 85.536H106.711L106.735 85.584L105.295 87.132H103.939ZM109.97 96V87.768H111.614L114.926 92.208C114.974 92.264 115.034 92.344 115.106 92.448C115.178 92.544 115.246 92.64 115.31 92.736C115.374 92.832 115.418 92.908 115.442 92.964H115.502C115.502 92.828 115.502 92.696 115.502 92.568C115.502 92.432 115.502 92.312 115.502 92.208V87.768H117.194V96H115.55L112.166 91.452C112.086 91.34 112.002 91.216 111.914 91.08C111.826 90.944 111.762 90.84 111.722 90.768H111.662C111.662 90.888 111.662 91.008 111.662 91.128C111.662 91.24 111.662 91.348 111.662 91.452V96H109.97ZM122.857 96.144C121.985 96.144 121.233 95.988 120.601 95.676C119.969 95.364 119.485 94.892 119.149 94.26C118.813 93.628 118.645 92.836 118.645 91.884C118.645 90.916 118.813 90.12 119.149 89.496C119.485 88.864 119.969 88.396 120.601 88.092C121.233 87.78 121.985 87.624 122.857 87.624C123.745 87.624 124.501 87.78 125.125 88.092C125.757 88.396 126.241 88.864 126.577 89.496C126.913 90.12 127.081 90.916 127.081 91.884C127.081 92.836 126.913 93.628 126.577 94.26C126.241 94.892 125.757 95.364 125.125 95.676C124.501 95.988 123.745 96.144 122.857 96.144ZM122.857 94.68C123.249 94.68 123.593 94.624 123.889 94.512C124.185 94.4 124.433 94.232 124.633 94.008C124.833 93.784 124.985 93.512 125.089 93.192C125.193 92.864 125.245 92.492 125.245 92.076V91.704C125.245 91.28 125.193 90.904 125.089 90.576C124.985 90.248 124.833 89.976 124.633 89.76C124.433 89.536 124.185 89.368 123.889 89.256C123.593 89.144 123.249 89.088 122.857 89.088C122.473 89.088 122.133 89.144 121.837 89.256C121.541 89.368 121.293 89.536 121.093 89.76C120.893 89.976 120.741 90.248 120.637 90.576C120.541 90.904 120.493 91.28 120.493 91.704V92.076C120.493 92.492 120.541 92.864 120.637 93.192C120.741 93.512 120.893 93.784 121.093 94.008C121.293 94.232 121.541 94.4 121.837 94.512C122.133 94.624 122.473 94.68 122.857 94.68ZM131.737 96.144C131.257 96.144 130.801 96.096 130.369 96C129.937 95.904 129.553 95.752 129.217 95.544C128.889 95.328 128.629 95.06 128.437 94.74C128.253 94.412 128.161 94.016 128.161 93.552C128.161 93.512 128.161 93.472 128.161 93.432C128.161 93.384 128.165 93.348 128.173 93.324H129.949C129.941 93.348 129.937 93.38 129.937 93.42C129.937 93.46 129.937 93.496 129.937 93.528C129.937 93.784 130.005 94 130.141 94.176C130.285 94.352 130.493 94.484 130.765 94.572C131.037 94.66 131.353 94.704 131.713 94.704C131.945 94.704 132.149 94.692 132.325 94.668C132.509 94.636 132.669 94.596 132.805 94.548C132.949 94.492 133.065 94.428 133.153 94.356C133.249 94.284 133.317 94.2 133.357 94.104C133.405 94.008 133.429 93.9 133.429 93.78C133.429 93.564 133.357 93.388 133.213 93.252C133.077 93.116 132.885 93 132.637 92.904C132.397 92.808 132.125 92.72 131.821 92.64C131.517 92.56 131.205 92.48 130.885 92.4C130.565 92.312 130.253 92.208 129.949 92.088C129.645 91.96 129.373 91.808 129.133 91.632C128.893 91.456 128.701 91.232 128.557 90.96C128.413 90.688 128.341 90.36 128.341 89.976C128.341 89.568 128.425 89.216 128.593 88.92C128.769 88.624 129.013 88.38 129.325 88.188C129.637 87.996 129.997 87.856 130.405 87.768C130.813 87.672 131.257 87.624 131.737 87.624C132.185 87.624 132.609 87.672 133.009 87.768C133.409 87.856 133.761 88 134.065 88.2C134.369 88.4 134.605 88.652 134.773 88.956C134.949 89.26 135.037 89.62 135.037 90.036V90.18H133.297V90.084C133.297 89.868 133.233 89.684 133.105 89.532C132.977 89.38 132.797 89.26 132.565 89.172C132.333 89.084 132.061 89.04 131.749 89.04C131.413 89.04 131.125 89.072 130.885 89.136C130.653 89.2 130.473 89.296 130.345 89.424C130.225 89.544 130.165 89.688 130.165 89.856C130.165 90.048 130.233 90.208 130.369 90.336C130.513 90.456 130.705 90.564 130.945 90.66C131.193 90.748 131.469 90.828 131.773 90.9C132.077 90.972 132.389 91.052 132.709 91.14C133.029 91.228 133.341 91.332 133.645 91.452C133.949 91.572 134.221 91.724 134.461 91.908C134.701 92.084 134.893 92.304 135.037 92.568C135.181 92.832 135.253 93.148 135.253 93.516C135.253 94.148 135.101 94.656 134.797 95.04C134.493 95.424 134.077 95.704 133.549 95.88C133.021 96.056 132.417 96.144 131.737 96.144Z" fill="#A0076C"/>
</svg>
