<svg width="64" height="108" viewBox="0 0 64 108" fill="none" xmlns="http://www.w3.org/2000/svg">
<rect x="0.5" y="0.5" width="63" height="107" rx="4.5" stroke="#9747FF" stroke-dasharray="10 5"/>
<mask id="mask0_1_634" style="mask-type:alpha" maskUnits="userSpaceOnUse" x="20" y="20" width="24" height="24">
<rect x="20" y="20" width="24" height="24" fill="#D9D9D9"/>
</mask>
<g mask="url(#mask0_1_634)">
<path d="M25 41V25C25 24.45 25.1958 23.9792 25.5875 23.5875C25.9792 23.1958 26.45 23 27 23H37C37.55 23 38.0208 23.1958 38.4125 23.5875C38.8042 23.9792 39 24.45 39 25V41L32 38L25 41ZM27 37.95L32 35.8L37 37.95V25H27V37.95Z" fill="#5A5E5D"/>
</g>
<mask id="mask1_1_634" style="mask-type:alpha" maskUnits="userSpaceOnUse" x="20" y="64" width="24" height="24">
<rect x="20.5" y="64.5" width="23" height="23" fill="#D9D9D9" stroke="#731C29"/>
</mask>
<g mask="url(#mask1_1_634)">
<path d="M25 85V69C25 68.45 25.1958 67.9792 25.5875 67.5875C25.9792 67.1958 26.45 67 27 67H37C37.55 67 38.0208 67.1958 38.4125 67.5875C38.8042 67.9792 39 68.45 39 69V85L32 82L25 85ZM27 81.95L32 79.8L37 81.95V69H27V81.95Z" fill="#731C29"/>
</g>
</svg>
