<svg width="844" height="40" viewBox="0 0 844 40" fill="none" xmlns="http://www.w3.org/2000/svg">
<path d="M738.398 19.7578C739.883 19.4062 741.25 19.2305 742.5 19.2305C743.75 19.2305 745.117 19.4062 746.602 19.7578C748.086 20.1094 749.434 20.6953 750.645 21.5156C751.895 22.3359 752.52 23.2539 752.52 24.2695V28.0195H732.48V24.2695C732.48 23.2539 733.086 22.3359 734.297 21.5156C735.547 20.6953 736.914 20.1094 738.398 19.7578ZM738.984 9.50391C739.961 8.48828 741.133 7.98047 742.5 7.98047C743.867 7.98047 745.039 8.48828 746.016 9.50391C746.992 10.4805 747.48 11.6523 747.48 13.0195C747.48 14.3867 746.992 15.5586 746.016 16.5352C745.039 17.5117 743.867 18 742.5 18C741.133 18 739.961 17.5117 738.984 16.5352C738.008 15.5586 737.52 14.3867 737.52 13.0195C737.52 11.6523 738.008 10.4805 738.984 9.50391ZM747.598 22.6289C745.918 21.9648 744.219 21.6328 742.5 21.6328C740.781 21.6328 739.082 21.9648 737.402 22.6289C735.723 23.2539 734.883 23.8008 734.883 24.2695V25.6172H750.117V24.2695C750.117 23.8008 749.277 23.2539 747.598 22.6289ZM744.375 11.1445C743.867 10.6367 743.242 10.3828 742.5 10.3828C741.758 10.3828 741.133 10.6367 740.625 11.1445C740.117 11.6523 739.863 12.2773 739.863 13.0195C739.863 13.7617 740.117 14.3867 740.625 14.8945C741.133 15.3633 741.758 15.5977 742.5 15.5977C743.242 15.5977 743.867 15.3633 744.375 14.8945C744.883 14.3867 745.137 13.7617 745.137 13.0195C745.137 12.2773 744.883 11.6523 744.375 11.1445Z" fill="#EFECE7"/>
<path d="M645.568 18.319C646.769 19.5201 648.228 20.1206 649.944 20.1206C651.66 20.1206 653.118 19.5201 654.319 18.319C655.52 17.118 656.121 15.6595 656.121 13.9437C656.121 12.2279 655.52 10.7694 654.319 9.56836C653.118 8.36729 651.66 7.76676 649.944 7.76676C648.228 7.76676 646.769 8.36729 645.568 9.56836C644.367 10.7694 643.767 12.2279 643.767 13.9437C643.767 15.6595 644.367 17.118 645.568 18.319ZM658.18 20.1206L665 26.941L662.941 29L656.121 22.1796V21.0858L655.735 20.6997C654.105 22.1153 652.174 22.8231 649.944 22.8231C647.456 22.8231 645.332 21.9651 643.574 20.2493C641.858 18.5335 641 16.4316 641 13.9437C641 11.4558 641.858 9.35389 643.574 7.63807C645.332 5.87936 647.456 5 649.944 5C652.432 5 654.534 5.87936 656.249 7.63807C657.965 9.35389 658.823 11.4558 658.823 13.9437C658.823 16.1743 658.115 18.1046 656.7 19.7346L657.086 20.1206H658.18Z" fill="#EFECE7"/>
<g filter="url(#filter0_d_1_383)">
<path d="M430 10C430 5.58172 433.582 2 438 2H573C577.418 2 581 5.58172 581 10V24C581 28.4183 577.418 32 573 32H438C433.582 32 430 28.4183 430 24V10Z" fill="white"/>
<path d="M430.5 10C430.5 5.85786 433.858 2.5 438 2.5H573C577.142 2.5 580.5 5.85787 580.5 10V24C580.5 28.1421 577.142 31.5 573 31.5H438C433.858 31.5 430.5 28.1421 430.5 24V10Z" stroke="#DFE4EA"/>
</g>
<path d="M4.72507 15.836C5.48107 15.836 6.12507 15.9667 6.65707 16.228C7.1984 16.48 7.60907 16.844 7.88907 17.32C8.1784 17.796 8.32307 18.3747 8.32307 19.056C8.32307 19.4573 8.2624 19.854 8.14107 20.246C8.01974 20.638 7.82374 20.9973 7.55307 21.324C7.29174 21.6413 6.94174 21.898 6.50307 22.094C6.0644 22.2807 5.5324 22.374 4.90707 22.374H3.42307V26H1.92507V15.836H4.72507ZM4.90707 20.932C5.2804 20.932 5.59307 20.8713 5.84507 20.75C6.09707 20.6193 6.29307 20.456 6.43307 20.26C6.5824 20.064 6.68507 19.8633 6.74107 19.658C6.8064 19.4433 6.83907 19.252 6.83907 19.084C6.83907 18.8973 6.8064 18.7013 6.74107 18.496C6.68507 18.2813 6.58707 18.0853 6.44707 17.908C6.30707 17.7213 6.11574 17.572 5.87307 17.46C5.6304 17.3387 5.32707 17.278 4.96307 17.278H3.42307V20.932H4.90707ZM13.1466 15.836C13.6786 15.836 14.1686 15.9107 14.6166 16.06C15.074 16.2 15.4613 16.4053 15.7786 16.676C16.1053 16.9467 16.3573 17.2827 16.5346 17.684C16.7213 18.076 16.8146 18.5333 16.8146 19.056C16.8146 19.4573 16.754 19.854 16.6326 20.246C16.5113 20.638 16.3153 20.9927 16.0446 21.31C15.774 21.6273 15.4193 21.884 14.9806 22.08C14.542 22.2667 13.996 22.36 13.3426 22.36H11.8586V26H10.3606V15.836H13.1466ZM13.3146 20.932C13.6973 20.932 14.0146 20.8713 14.2666 20.75C14.528 20.6287 14.7286 20.4793 14.8686 20.302C15.018 20.1153 15.1206 19.9193 15.1766 19.714C15.242 19.4993 15.2746 19.294 15.2746 19.098C15.2746 18.9113 15.242 18.7153 15.1766 18.51C15.1206 18.3047 15.018 18.1087 14.8686 17.922C14.7286 17.7353 14.5373 17.5813 14.2946 17.46C14.052 17.3387 13.7533 17.278 13.3986 17.278H11.8586V20.932H13.3146ZM15.0366 21.8L17.6686 26H15.9326L13.2586 21.842L15.0366 21.8ZM18.7951 20.932C18.7951 20.232 18.9257 19.5693 19.1871 18.944C19.4577 18.3187 19.8311 17.7633 20.3071 17.278C20.7831 16.7927 21.3337 16.4147 21.9591 16.144C22.5844 15.864 23.2564 15.724 23.9751 15.724C24.6844 15.724 25.3517 15.864 25.9771 16.144C26.6024 16.4147 27.1577 16.7927 27.6431 17.278C28.1284 17.7633 28.5064 18.3187 28.7771 18.944C29.0477 19.5693 29.1831 20.232 29.1831 20.932C29.1831 21.6507 29.0477 22.3227 28.7771 22.948C28.5064 23.5733 28.1284 24.124 27.6431 24.6C27.1671 25.076 26.6117 25.4493 25.9771 25.72C25.3517 25.9813 24.6844 26.112 23.9751 26.112C23.2564 26.112 22.5844 25.9813 21.9591 25.72C21.3337 25.4587 20.7831 25.0947 20.3071 24.628C19.8311 24.152 19.4577 23.6013 19.1871 22.976C18.9257 22.3413 18.7951 21.66 18.7951 20.932ZM20.3351 20.932C20.3351 21.4547 20.4284 21.9447 20.6151 22.402C20.8111 22.85 21.0771 23.2467 21.4131 23.592C21.7491 23.928 22.1364 24.194 22.5751 24.39C23.0231 24.5767 23.5037 24.67 24.0171 24.67C24.5211 24.67 24.9924 24.5767 25.4311 24.39C25.8697 24.194 26.2524 23.928 26.5791 23.592C26.9151 23.2467 27.1764 22.85 27.3631 22.402C27.5497 21.9447 27.6431 21.4547 27.6431 20.932C27.6431 20.4093 27.5451 19.924 27.3491 19.476C27.1624 19.0187 26.9011 18.6173 26.5651 18.272C26.2384 17.9267 25.8511 17.656 25.4031 17.46C24.9644 17.264 24.4931 17.166 23.9891 17.166C23.4664 17.166 22.9857 17.264 22.5471 17.46C22.1084 17.656 21.7211 17.9267 21.3851 18.272C21.0491 18.6173 20.7877 19.0187 20.6011 19.476C20.4237 19.9333 20.3351 20.4187 20.3351 20.932ZM31.4153 26V15.836H34.2433C35.2513 15.836 36.11 15.99 36.8193 16.298C37.5286 16.606 38.098 17.012 38.5273 17.516C38.966 18.02 39.2833 18.58 39.4793 19.196C39.6846 19.812 39.7873 20.4327 39.7873 21.058C39.7873 21.814 39.652 22.4953 39.3813 23.102C39.1106 23.7087 38.742 24.2313 38.2753 24.67C37.8086 25.0993 37.272 25.4307 36.6653 25.664C36.0586 25.888 35.4146 26 34.7333 26H31.4153ZM32.9133 24.558H34.4533C35.004 24.558 35.508 24.4787 35.9653 24.32C36.432 24.1613 36.8333 23.928 37.1693 23.62C37.5146 23.312 37.7806 22.934 37.9673 22.486C38.154 22.038 38.2473 21.5247 38.2473 20.946C38.2473 20.3207 38.14 19.7793 37.9253 19.322C37.72 18.8553 37.4446 18.4727 37.0993 18.174C36.754 17.866 36.3666 17.642 35.9373 17.502C35.5173 17.3527 35.088 17.278 34.6493 17.278H32.9133V24.558ZM43.355 22.374C43.355 22.8033 43.4623 23.1907 43.677 23.536C43.8917 23.8813 44.1763 24.1567 44.531 24.362C44.8857 24.5673 45.2823 24.67 45.721 24.67C46.1877 24.67 46.603 24.5673 46.967 24.362C47.331 24.1567 47.6157 23.8813 47.821 23.536C48.0357 23.1907 48.143 22.8033 48.143 22.374V15.836H49.613V22.416C49.613 23.1533 49.4403 23.802 49.095 24.362C48.7497 24.9127 48.283 25.342 47.695 25.65C47.107 25.958 46.449 26.112 45.721 26.112C45.0117 26.112 44.363 25.958 43.775 25.65C43.187 25.342 42.7203 24.9127 42.375 24.362C42.039 23.802 41.871 23.1533 41.871 22.416V15.836H43.355V22.374ZM59.8096 25.23C59.6603 25.3327 59.4363 25.4587 59.1376 25.608C58.8483 25.748 58.5029 25.8693 58.1016 25.972C57.7096 26.0747 57.2756 26.1213 56.7996 26.112C56.0063 26.1027 55.2923 25.9627 54.6576 25.692C54.0323 25.4213 53.5003 25.0527 53.0616 24.586C52.6229 24.11 52.2823 23.5687 52.0396 22.962C51.8063 22.346 51.6896 21.6927 51.6896 21.002C51.6896 20.2367 51.8109 19.5367 52.0536 18.902C52.2963 18.258 52.6416 17.698 53.0896 17.222C53.5469 16.746 54.0789 16.3773 54.6856 16.116C55.3016 15.8547 55.9736 15.724 56.7016 15.724C57.3269 15.724 57.8916 15.808 58.3956 15.976C58.8996 16.144 59.3243 16.34 59.6696 16.564L59.0816 17.964C58.8109 17.7773 58.4749 17.6 58.0736 17.432C57.6816 17.2547 57.2429 17.166 56.7576 17.166C56.2816 17.166 55.8289 17.264 55.3996 17.46C54.9796 17.6467 54.6063 17.9127 54.2796 18.258C53.9623 18.594 53.7103 18.9907 53.5236 19.448C53.3369 19.896 53.2436 20.386 53.2436 20.918C53.2436 21.4593 53.3276 21.9587 53.4956 22.416C53.6636 22.8733 53.9016 23.27 54.2096 23.606C54.5269 23.942 54.9049 24.2033 55.3436 24.39C55.7823 24.5767 56.2769 24.67 56.8276 24.67C57.3503 24.67 57.8076 24.5907 58.1996 24.432C58.6009 24.2733 58.9276 24.0913 59.1796 23.886L59.8096 25.23ZM61.312 15.836H68.088V17.278H65.414V26H63.916V17.278H61.312V15.836ZM69.1623 20.932C69.1623 20.232 69.2929 19.5693 69.5543 18.944C69.8249 18.3187 70.1983 17.7633 70.6743 17.278C71.1503 16.7927 71.7009 16.4147 72.3263 16.144C72.9516 15.864 73.6236 15.724 74.3423 15.724C75.0516 15.724 75.7189 15.864 76.3443 16.144C76.9696 16.4147 77.5249 16.7927 78.0103 17.278C78.4956 17.7633 78.8736 18.3187 79.1443 18.944C79.4149 19.5693 79.5503 20.232 79.5503 20.932C79.5503 21.6507 79.4149 22.3227 79.1443 22.948C78.8736 23.5733 78.4956 24.124 78.0103 24.6C77.5343 25.076 76.9789 25.4493 76.3443 25.72C75.7189 25.9813 75.0516 26.112 74.3423 26.112C73.6236 26.112 72.9516 25.9813 72.3263 25.72C71.7009 25.4587 71.1503 25.0947 70.6743 24.628C70.1983 24.152 69.8249 23.6013 69.5543 22.976C69.2929 22.3413 69.1623 21.66 69.1623 20.932ZM70.7023 20.932C70.7023 21.4547 70.7956 21.9447 70.9823 22.402C71.1783 22.85 71.4443 23.2467 71.7803 23.592C72.1163 23.928 72.5036 24.194 72.9423 24.39C73.3903 24.5767 73.8709 24.67 74.3843 24.67C74.8883 24.67 75.3596 24.5767 75.7983 24.39C76.2369 24.194 76.6196 23.928 76.9463 23.592C77.2823 23.2467 77.5436 22.85 77.7303 22.402C77.9169 21.9447 78.0103 21.4547 78.0103 20.932C78.0103 20.4093 77.9123 19.924 77.7163 19.476C77.5296 19.0187 77.2683 18.6173 76.9323 18.272C76.6056 17.9267 76.2183 17.656 75.7703 17.46C75.3316 17.264 74.8603 17.166 74.3563 17.166C73.8336 17.166 73.3529 17.264 72.9143 17.46C72.4756 17.656 72.0883 17.9267 71.7523 18.272C71.4163 18.6173 71.1549 19.0187 70.9683 19.476C70.7909 19.9333 70.7023 20.4187 70.7023 20.932ZM87.0745 17.782C86.7198 17.5953 86.3372 17.4367 85.9265 17.306C85.5158 17.1753 85.1192 17.11 84.7365 17.11C84.2138 17.11 83.7985 17.2313 83.4905 17.474C83.1825 17.7073 83.0285 18.0293 83.0285 18.44C83.0285 18.7293 83.1312 18.9813 83.3365 19.196C83.5418 19.4107 83.8078 19.5973 84.1345 19.756C84.4612 19.9147 84.8065 20.064 85.1705 20.204C85.4785 20.316 85.7818 20.4513 86.0805 20.61C86.3885 20.7593 86.6638 20.946 86.9065 21.17C87.1585 21.394 87.3545 21.674 87.4945 22.01C87.6438 22.3367 87.7185 22.738 87.7185 23.214C87.7185 23.7553 87.5832 24.2453 87.3125 24.684C87.0512 25.1227 86.6685 25.4727 86.1645 25.734C85.6698 25.986 85.0678 26.112 84.3585 26.112C83.9292 26.112 83.5092 26.0653 83.0985 25.972C82.6972 25.8693 82.3145 25.7387 81.9505 25.58C81.5958 25.412 81.2738 25.23 80.9845 25.034L81.6565 23.872C81.8805 24.0307 82.1372 24.1847 82.4265 24.334C82.7158 24.474 83.0145 24.586 83.3225 24.67C83.6398 24.754 83.9385 24.796 84.2185 24.796C84.5265 24.796 84.8298 24.7447 85.1285 24.642C85.4272 24.53 85.6745 24.362 85.8705 24.138C86.0665 23.9047 86.1645 23.6013 86.1645 23.228C86.1645 22.9107 86.0758 22.6447 85.8985 22.43C85.7305 22.206 85.5018 22.0147 85.2125 21.856C84.9325 21.6973 84.6292 21.5573 84.3025 21.436C83.9852 21.3147 83.6632 21.1793 83.3365 21.03C83.0098 20.8807 82.7065 20.7033 82.4265 20.498C82.1465 20.2833 81.9178 20.022 81.7405 19.714C81.5725 19.3967 81.4885 19.0093 81.4885 18.552C81.4885 18.0107 81.6145 17.5393 81.8665 17.138C82.1278 16.7273 82.4872 16.4053 82.9445 16.172C83.4018 15.9387 83.9292 15.808 84.5265 15.78C85.2078 15.78 85.8005 15.864 86.3045 16.032C86.8085 16.2 87.2565 16.4007 87.6485 16.634L87.0745 17.782Z" fill="#EFECE7"/>
<path d="M158.134 24.23C157.984 24.3327 157.76 24.4587 157.462 24.608C157.172 24.748 156.827 24.8693 156.426 24.972C156.034 25.0747 155.6 25.1213 155.124 25.112C154.33 25.1027 153.616 24.9627 152.982 24.692C152.356 24.4213 151.824 24.0527 151.386 23.586C150.947 23.11 150.606 22.5687 150.364 21.962C150.13 21.346 150.014 20.6927 150.014 20.002C150.014 19.2367 150.135 18.5367 150.378 17.902C150.62 17.258 150.966 16.698 151.414 16.222C151.871 15.746 152.403 15.3773 153.01 15.116C153.626 14.8547 154.298 14.724 155.026 14.724C155.651 14.724 156.216 14.808 156.72 14.976C157.224 15.144 157.648 15.34 157.994 15.564L157.406 16.964C157.135 16.7773 156.799 16.6 156.398 16.432C156.006 16.2547 155.567 16.166 155.082 16.166C154.606 16.166 154.153 16.264 153.724 16.46C153.304 16.6467 152.93 16.9127 152.604 17.258C152.286 17.594 152.034 17.9907 151.848 18.448C151.661 18.896 151.568 19.386 151.568 19.918C151.568 20.4593 151.652 20.9587 151.82 21.416C151.988 21.8733 152.226 22.27 152.534 22.606C152.851 22.942 153.229 23.2033 153.668 23.39C154.106 23.5767 154.601 23.67 155.152 23.67C155.674 23.67 156.132 23.5907 156.524 23.432C156.925 23.2733 157.252 23.0913 157.504 22.886L158.134 24.23ZM159.748 19.932C159.748 19.232 159.879 18.5693 160.14 17.944C160.411 17.3187 160.784 16.7633 161.26 16.278C161.736 15.7927 162.287 15.4147 162.912 15.144C163.538 14.864 164.21 14.724 164.928 14.724C165.638 14.724 166.305 14.864 166.93 15.144C167.556 15.4147 168.111 15.7927 168.596 16.278C169.082 16.7633 169.46 17.3187 169.73 17.944C170.001 18.5693 170.136 19.232 170.136 19.932C170.136 20.6507 170.001 21.3227 169.73 21.948C169.46 22.5733 169.082 23.124 168.596 23.6C168.12 24.076 167.565 24.4493 166.93 24.72C166.305 24.9813 165.638 25.112 164.928 25.112C164.21 25.112 163.538 24.9813 162.912 24.72C162.287 24.4587 161.736 24.0947 161.26 23.628C160.784 23.152 160.411 22.6013 160.14 21.976C159.879 21.3413 159.748 20.66 159.748 19.932ZM161.288 19.932C161.288 20.4547 161.382 20.9447 161.568 21.402C161.764 21.85 162.03 22.2467 162.366 22.592C162.702 22.928 163.09 23.194 163.528 23.39C163.976 23.5767 164.457 23.67 164.97 23.67C165.474 23.67 165.946 23.5767 166.384 23.39C166.823 23.194 167.206 22.928 167.532 22.592C167.868 22.2467 168.13 21.85 168.316 21.402C168.503 20.9447 168.596 20.4547 168.596 19.932C168.596 19.4093 168.498 18.924 168.302 18.476C168.116 18.0187 167.854 17.6173 167.518 17.272C167.192 16.9267 166.804 16.656 166.356 16.46C165.918 16.264 165.446 16.166 164.942 16.166C164.42 16.166 163.939 16.264 163.5 16.46C163.062 16.656 162.674 16.9267 162.338 17.272C162.002 17.6173 161.741 18.0187 161.554 18.476C161.377 18.9333 161.288 19.4187 161.288 19.932ZM181.23 25.35L173.404 17.58L173.838 17.72L173.88 25H172.368V14.514H172.438L180.166 22.298L179.816 22.2L179.788 14.836H181.272V25.35H181.23ZM191.63 24.23C191.481 24.3327 191.257 24.4587 190.958 24.608C190.669 24.748 190.323 24.8693 189.922 24.972C189.53 25.0747 189.096 25.1213 188.62 25.112C187.827 25.1027 187.113 24.9627 186.478 24.692C185.853 24.4213 185.321 24.0527 184.882 23.586C184.443 23.11 184.103 22.5687 183.86 21.962C183.627 21.346 183.51 20.6927 183.51 20.002C183.51 19.2367 183.631 18.5367 183.874 17.902C184.117 17.258 184.462 16.698 184.91 16.222C185.367 15.746 185.899 15.3773 186.506 15.116C187.122 14.8547 187.794 14.724 188.522 14.724C189.147 14.724 189.712 14.808 190.216 14.976C190.72 15.144 191.145 15.34 191.49 15.564L190.902 16.964C190.631 16.7773 190.295 16.6 189.894 16.432C189.502 16.2547 189.063 16.166 188.578 16.166C188.102 16.166 187.649 16.264 187.22 16.46C186.8 16.6467 186.427 16.9127 186.1 17.258C185.783 17.594 185.531 17.9907 185.344 18.448C185.157 18.896 185.064 19.386 185.064 19.918C185.064 20.4593 185.148 20.9587 185.316 21.416C185.484 21.8733 185.722 22.27 186.03 22.606C186.347 22.942 186.725 23.2033 187.164 23.39C187.603 23.5767 188.097 23.67 188.648 23.67C189.171 23.67 189.628 23.5907 190.02 23.432C190.421 23.2733 190.748 23.0913 191 22.886L191.63 24.23ZM193.874 14.836H200.552V16.278H195.372V19.176H199.978V20.618H195.372V23.558H200.748V25H193.874V14.836ZM205.848 14.836C206.604 14.836 207.248 14.9667 207.78 15.228C208.321 15.48 208.732 15.844 209.012 16.32C209.301 16.796 209.446 17.3747 209.446 18.056C209.446 18.4573 209.385 18.854 209.264 19.246C209.143 19.638 208.947 19.9973 208.676 20.324C208.415 20.6413 208.065 20.898 207.626 21.094C207.187 21.2807 206.655 21.374 206.03 21.374H204.546V25H203.048V14.836H205.848ZM206.03 19.932C206.403 19.932 206.716 19.8713 206.968 19.75C207.22 19.6193 207.416 19.456 207.556 19.26C207.705 19.064 207.808 18.8633 207.864 18.658C207.929 18.4433 207.962 18.252 207.962 18.084C207.962 17.8973 207.929 17.7013 207.864 17.496C207.808 17.2813 207.71 17.0853 207.57 16.908C207.43 16.7213 207.239 16.572 206.996 16.46C206.753 16.3387 206.45 16.278 206.086 16.278H204.546V19.932H206.03ZM210.742 14.836H217.518V16.278H214.844V25H213.346V16.278H210.742V14.836ZM218.592 19.932C218.592 19.232 218.723 18.5693 218.984 17.944C219.255 17.3187 219.628 16.7633 220.104 16.278C220.58 15.7927 221.131 15.4147 221.756 15.144C222.381 14.864 223.053 14.724 223.772 14.724C224.481 14.724 225.149 14.864 225.774 15.144C226.399 15.4147 226.955 15.7927 227.44 16.278C227.925 16.7633 228.303 17.3187 228.574 17.944C228.845 18.5693 228.98 19.232 228.98 19.932C228.98 20.6507 228.845 21.3227 228.574 21.948C228.303 22.5733 227.925 23.124 227.44 23.6C226.964 24.076 226.409 24.4493 225.774 24.72C225.149 24.9813 224.481 25.112 223.772 25.112C223.053 25.112 222.381 24.9813 221.756 24.72C221.131 24.4587 220.58 24.0947 220.104 23.628C219.628 23.152 219.255 22.6013 218.984 21.976C218.723 21.3413 218.592 20.66 218.592 19.932ZM220.132 19.932C220.132 20.4547 220.225 20.9447 220.412 21.402C220.608 21.85 220.874 22.2467 221.21 22.592C221.546 22.928 221.933 23.194 222.372 23.39C222.82 23.5767 223.301 23.67 223.814 23.67C224.318 23.67 224.789 23.5767 225.228 23.39C225.667 23.194 226.049 22.928 226.376 22.592C226.712 22.2467 226.973 21.85 227.16 21.402C227.347 20.9447 227.44 20.4547 227.44 19.932C227.44 19.4093 227.342 18.924 227.146 18.476C226.959 18.0187 226.698 17.6173 226.362 17.272C226.035 16.9267 225.648 16.656 225.2 16.46C224.761 16.264 224.29 16.166 223.786 16.166C223.263 16.166 222.783 16.264 222.344 16.46C221.905 16.656 221.518 16.9267 221.182 17.272C220.846 17.6173 220.585 18.0187 220.398 18.476C220.221 18.9333 220.132 19.4187 220.132 19.932Z" fill="#EFECE7"/>
<path d="M299.153 24.23C299.004 24.3327 298.78 24.4587 298.481 24.608C298.192 24.748 297.847 24.8693 297.445 24.972C297.053 25.0747 296.619 25.1213 296.143 25.112C295.35 25.1027 294.636 24.9627 294.001 24.692C293.376 24.4213 292.844 24.0527 292.405 23.586C291.967 23.11 291.626 22.5687 291.383 21.962C291.15 21.346 291.033 20.6927 291.033 20.002C291.033 19.2367 291.155 18.5367 291.397 17.902C291.64 17.258 291.985 16.698 292.433 16.222C292.891 15.746 293.423 15.3773 294.029 15.116C294.645 14.8547 295.317 14.724 296.045 14.724C296.671 14.724 297.235 14.808 297.739 14.976C298.243 15.144 298.668 15.34 299.013 15.564L298.425 16.964C298.155 16.7773 297.819 16.6 297.417 16.432C297.025 16.2547 296.587 16.166 296.101 16.166C295.625 16.166 295.173 16.264 294.743 16.46C294.323 16.6467 293.95 16.9127 293.623 17.258C293.306 17.594 293.054 17.9907 292.867 18.448C292.681 18.896 292.587 19.386 292.587 19.918C292.587 20.4593 292.671 20.9587 292.839 21.416C293.007 21.8733 293.245 22.27 293.553 22.606C293.871 22.942 294.249 23.2033 294.687 23.39C295.126 23.5767 295.621 23.67 296.171 23.67C296.694 23.67 297.151 23.5907 297.543 23.432C297.945 23.2733 298.271 23.0913 298.523 22.886L299.153 24.23ZM300.768 19.932C300.768 19.232 300.898 18.5693 301.16 17.944C301.43 17.3187 301.804 16.7633 302.28 16.278C302.756 15.7927 303.306 15.4147 303.932 15.144C304.557 14.864 305.229 14.724 305.948 14.724C306.657 14.724 307.324 14.864 307.95 15.144C308.575 15.4147 309.13 15.7927 309.616 16.278C310.101 16.7633 310.479 17.3187 310.75 17.944C311.02 18.5693 311.156 19.232 311.156 19.932C311.156 20.6507 311.02 21.3227 310.75 21.948C310.479 22.5733 310.101 23.124 309.616 23.6C309.14 24.076 308.584 24.4493 307.95 24.72C307.324 24.9813 306.657 25.112 305.948 25.112C305.229 25.112 304.557 24.9813 303.932 24.72C303.306 24.4587 302.756 24.0947 302.28 23.628C301.804 23.152 301.43 22.6013 301.16 21.976C300.898 21.3413 300.768 20.66 300.768 19.932ZM302.308 19.932C302.308 20.4547 302.401 20.9447 302.588 21.402C302.784 21.85 303.05 22.2467 303.386 22.592C303.722 22.928 304.109 23.194 304.548 23.39C304.996 23.5767 305.476 23.67 305.99 23.67C306.494 23.67 306.965 23.5767 307.404 23.39C307.842 23.194 308.225 22.928 308.552 22.592C308.888 22.2467 309.149 21.85 309.336 21.402C309.522 20.9447 309.616 20.4547 309.616 19.932C309.616 19.4093 309.518 18.924 309.322 18.476C309.135 18.0187 308.874 17.6173 308.538 17.272C308.211 16.9267 307.824 16.656 307.376 16.46C306.937 16.264 306.466 16.166 305.962 16.166C305.439 16.166 304.958 16.264 304.52 16.46C304.081 16.656 303.694 16.9267 303.358 17.272C303.022 17.6173 302.76 18.0187 302.574 18.476C302.396 18.9333 302.308 19.4187 302.308 19.932ZM322.25 25.35L314.424 17.58L314.858 17.72L314.9 25H313.388V14.514H313.458L321.186 22.298L320.836 22.2L320.808 14.836H322.292V25.35H322.25ZM324.417 14.836H331.193V16.278H328.519V25H327.021V16.278H324.417V14.836ZM331.479 25L335.945 14.43H336.029L340.495 25H338.787L335.539 16.768L336.617 16.054L332.949 25H331.479ZM334.195 21.192H337.807L338.325 22.48H333.747L334.195 21.192ZM349.22 24.23C349.07 24.3327 348.846 24.4587 348.548 24.608C348.258 24.748 347.913 24.8693 347.512 24.972C347.12 25.0747 346.686 25.1213 346.21 25.112C345.416 25.1027 344.702 24.9627 344.068 24.692C343.442 24.4213 342.91 24.0527 342.472 23.586C342.033 23.11 341.692 22.5687 341.45 21.962C341.216 21.346 341.1 20.6927 341.1 20.002C341.1 19.2367 341.221 18.5367 341.464 17.902C341.706 17.258 342.052 16.698 342.5 16.222C342.957 15.746 343.489 15.3773 344.096 15.116C344.712 14.8547 345.384 14.724 346.112 14.724C346.737 14.724 347.302 14.808 347.806 14.976C348.31 15.144 348.734 15.34 349.08 15.564L348.492 16.964C348.221 16.7773 347.885 16.6 347.484 16.432C347.092 16.2547 346.653 16.166 346.168 16.166C345.692 16.166 345.239 16.264 344.81 16.46C344.39 16.6467 344.016 16.9127 343.69 17.258C343.372 17.594 343.12 17.9907 342.934 18.448C342.747 18.896 342.654 19.386 342.654 19.918C342.654 20.4593 342.738 20.9587 342.906 21.416C343.074 21.8733 343.312 22.27 343.62 22.606C343.937 22.942 344.315 23.2033 344.754 23.39C345.192 23.5767 345.687 23.67 346.238 23.67C346.76 23.67 347.218 23.5907 347.61 23.432C348.011 23.2733 348.338 23.0913 348.59 22.886L349.22 24.23ZM350.722 14.836H357.498V16.278H354.824V25H353.326V16.278H350.722V14.836ZM358.572 19.932C358.572 19.232 358.703 18.5693 358.964 17.944C359.235 17.3187 359.608 16.7633 360.084 16.278C360.56 15.7927 361.111 15.4147 361.736 15.144C362.362 14.864 363.034 14.724 363.752 14.724C364.462 14.724 365.129 14.864 365.754 15.144C366.38 15.4147 366.935 15.7927 367.42 16.278C367.906 16.7633 368.284 17.3187 368.554 17.944C368.825 18.5693 368.96 19.232 368.96 19.932C368.96 20.6507 368.825 21.3227 368.554 21.948C368.284 22.5733 367.906 23.124 367.42 23.6C366.944 24.076 366.389 24.4493 365.754 24.72C365.129 24.9813 364.462 25.112 363.752 25.112C363.034 25.112 362.362 24.9813 361.736 24.72C361.111 24.4587 360.56 24.0947 360.084 23.628C359.608 23.152 359.235 22.6013 358.964 21.976C358.703 21.3413 358.572 20.66 358.572 19.932ZM360.112 19.932C360.112 20.4547 360.206 20.9447 360.392 21.402C360.588 21.85 360.854 22.2467 361.19 22.592C361.526 22.928 361.914 23.194 362.352 23.39C362.8 23.5767 363.281 23.67 363.794 23.67C364.298 23.67 364.77 23.5767 365.208 23.39C365.647 23.194 366.03 22.928 366.356 22.592C366.692 22.2467 366.954 21.85 367.14 21.402C367.327 20.9447 367.42 20.4547 367.42 19.932C367.42 19.4093 367.322 18.924 367.126 18.476C366.94 18.0187 366.678 17.6173 366.342 17.272C366.016 16.9267 365.628 16.656 365.18 16.46C364.742 16.264 364.27 16.166 363.766 16.166C363.244 16.166 362.763 16.264 362.324 16.46C361.886 16.656 361.498 16.9267 361.162 17.272C360.826 17.6173 360.565 18.0187 360.378 18.476C360.201 18.9333 360.112 19.4187 360.112 19.932Z" fill="#F8F6EF"/>
<path d="M827.207 29C826.546 29 825.981 28.765 825.51 28.295C825.04 27.825 824.804 27.26 824.804 26.6C824.804 25.94 825.04 25.375 825.51 24.905C825.981 24.435 826.546 24.2 827.207 24.2C827.867 24.2 828.433 24.435 828.903 24.905C829.374 25.375 829.609 25.94 829.609 26.6C829.609 27.26 829.374 27.825 828.903 28.295C828.433 28.765 827.867 29 827.207 29ZM839.218 29C838.557 29 837.992 28.765 837.521 28.295C837.051 27.825 836.816 27.26 836.816 26.6C836.816 25.94 837.051 25.375 837.521 24.905C837.992 24.435 838.557 24.2 839.218 24.2C839.878 24.2 840.444 24.435 840.914 24.905C841.385 25.375 841.62 25.94 841.62 26.6C841.62 27.26 841.385 27.825 840.914 28.295C840.444 28.765 839.878 29 839.218 29ZM826.186 9.8L829.068 15.8H837.476L840.779 9.8H826.186ZM825.045 7.4H842.761C843.221 7.4 843.572 7.605 843.812 8.015C844.052 8.425 844.062 8.84 843.842 9.26L839.578 16.94C839.358 17.34 839.063 17.65 838.692 17.87C838.322 18.09 837.917 18.2 837.476 18.2H828.528L827.207 20.6H841.62V23H827.207C826.306 23 825.625 22.605 825.165 21.815C824.704 21.025 824.684 20.24 825.105 19.46L826.726 16.52L822.402 7.4H820V5H823.904L825.045 7.4Z" fill="#EFECE7"/>
<defs>
<filter id="filter0_d_1_383" x="426" y="2" width="159" height="38" filterUnits="userSpaceOnUse" color-interpolation-filters="sRGB">
<feFlood flood-opacity="0" result="BackgroundImageFix"/>
<feColorMatrix in="SourceAlpha" type="matrix" values="0 0 0 0 0 0 0 0 0 0 0 0 0 0 0 0 0 0 127 0" result="hardAlpha"/>
<feOffset dy="4"/>
<feGaussianBlur stdDeviation="2"/>
<feComposite in2="hardAlpha" operator="out"/>
<feColorMatrix type="matrix" values="0 0 0 0 0 0 0 0 0 0 0 0 0 0 0 0 0 0 0.25 0"/>
<feBlend mode="normal" in2="BackgroundImageFix" result="effect1_dropShadow_1_383"/>
<feBlend mode="normal" in="SourceGraphic" in2="effect1_dropShadow_1_383" result="shape"/>
</filter>
</defs>
</svg>
